<?xml version="1.0" standalone="no"?>
<!DOCTYPE svg PUBLIC "-//W3C//DTD SVG 20010904//EN"
 "http://www.w3.org/TR/2001/REC-SVG-20010904/DTD/svg10.dtd">
<svg version="1.0" xmlns="http://www.w3.org/2000/svg"
 width="700.000000pt" height="700.000000pt" viewBox="0 0 700.000000 700.000000"
 preserveAspectRatio="xMidYMid meet">
<metadata>
Created by potrace 1.14, written by Peter Selinger 2001-2017
</metadata>
<g transform="translate(0.000000,700.000000) scale(0.100000,-0.100000)"
fill="#000000" stroke="none">
<path d="M3279 6766 c-2 -2 -44 -7 -92 -10 -48 -3 -102 -8 -120 -11 -18 -2
-66 -9 -107 -15 -116 -16 -137 -19 -260 -47 -769 -169 -1428 -559 -1940 -1148
-219 -252 -435 -615 -557 -935 -75 -197 -148 -474 -169 -645 -2 -22 -6 -47 -9
-55 -26 -96 -26 -677 1 -795 2 -11 6 -36 8 -55 13 -104 37 -217 95 -435 12
-45 64 -190 99 -275 357 -886 1130 -1596 2082 -1913 200 -67 306 -96 440 -121
14 -3 50 -9 80 -15 30 -6 69 -12 85 -15 46 -7 117 -17 145 -21 187 -27 738
-27 876 -1 11 2 42 7 69 10 43 6 226 37 290 50 256 52 608 177 870 311 1039
528 1711 1484 1822 2590 10 93 10 459 1 561 -49 543 -246 1072 -570 1529 -35
50 -71 99 -80 110 -9 11 -41 49 -70 85 -486 597 -1231 1037 -2020 1194 -180
36 -173 35 -408 62 -56 6 -555 15 -561 10z"/>
</g>
</svg>
