<svg width="1017" height="108" viewBox="0 0 1017 108" fill="none" xmlns="http://www.w3.org/2000/svg">
<path d="M609.659 44.5455C607.136 44.5455 604.96 43.9886 603.131 42.875C601.312 41.75 599.909 40.1818 598.92 38.1705C597.943 36.1477 597.455 33.7955 597.455 31.1136C597.455 28.4318 597.943 26.0682 598.92 24.0227C599.909 21.9659 601.284 20.3636 603.045 19.2159C604.818 18.0568 606.886 17.4773 609.25 17.4773C610.614 17.4773 611.96 17.7045 613.29 18.1591C614.619 18.6136 615.83 19.3523 616.92 20.375C618.011 21.3864 618.881 22.7273 619.528 24.3977C620.176 26.0682 620.5 28.125 620.5 30.5682V32.2727H600.318V28.7955H616.409C616.409 27.3182 616.114 26 615.523 24.8409C614.943 23.6818 614.114 22.767 613.034 22.0966C611.966 21.4261 610.705 21.0909 609.25 21.0909C607.648 21.0909 606.261 21.4886 605.091 22.2841C603.932 23.0682 603.04 24.0909 602.415 25.3523C601.79 26.6136 601.477 27.9659 601.477 29.4091V31.7273C601.477 33.7045 601.818 35.3807 602.5 36.7557C603.193 38.1193 604.153 39.1591 605.381 39.875C606.608 40.5795 608.034 40.9318 609.659 40.9318C610.716 40.9318 611.67 40.7841 612.523 40.4886C613.386 40.1818 614.131 39.7273 614.756 39.125C615.381 38.5114 615.864 37.75 616.205 36.8409L620.091 37.9318C619.682 39.25 618.994 40.4091 618.028 41.4091C617.063 42.3977 615.869 43.1705 614.449 43.7273C613.028 44.2727 611.432 44.5455 609.659 44.5455ZM628.436 17.8182L634.709 28.5227L640.982 17.8182H645.618L637.163 30.9091L645.618 44H640.982L634.709 33.8409L628.436 44H623.8L632.118 30.9091L623.8 17.8182H628.436ZM662.264 17.8182V21.2273H648.696V17.8182H662.264ZM652.651 11.5455H656.674V36.5C656.674 37.6364 656.838 38.4886 657.168 39.0568C657.509 39.6136 657.941 39.9886 658.463 40.1818C658.997 40.3636 659.56 40.4545 660.151 40.4545C660.594 40.4545 660.958 40.4318 661.242 40.3864C661.526 40.3295 661.753 40.2841 661.924 40.25L662.742 43.8636C662.469 43.9659 662.088 44.0682 661.6 44.1705C661.111 44.2841 660.492 44.3409 659.742 44.3409C658.605 44.3409 657.492 44.0966 656.401 43.608C655.321 43.1193 654.424 42.375 653.708 41.375C653.003 40.375 652.651 39.1136 652.651 37.5909V11.5455ZM667.836 44V17.8182H671.722V21.7727H671.995C672.472 20.4773 673.336 19.4261 674.586 18.6193C675.836 17.8125 677.245 17.4091 678.813 17.4091C679.108 17.4091 679.478 17.4148 679.921 17.4261C680.364 17.4375 680.699 17.4545 680.926 17.4773V21.5682C680.79 21.5341 680.478 21.483 679.989 21.4148C679.512 21.3352 679.006 21.2955 678.472 21.2955C677.199 21.2955 676.063 21.5625 675.063 22.0966C674.074 22.6193 673.29 23.3466 672.711 24.2784C672.142 25.1989 671.858 26.25 671.858 27.4318V44H667.836ZM692.919 44.6136C691.26 44.6136 689.755 44.3011 688.402 43.6761C687.05 43.0398 685.976 42.125 685.181 40.9318C684.385 39.7273 683.988 38.2727 683.988 36.5682C683.988 35.0682 684.283 33.8523 684.874 32.9205C685.465 31.9773 686.255 31.2386 687.243 30.7045C688.232 30.1705 689.323 29.7727 690.516 29.5114C691.721 29.2386 692.931 29.0227 694.147 28.8636C695.738 28.6591 697.027 28.5057 698.016 28.4034C699.016 28.2898 699.743 28.1023 700.198 27.8409C700.664 27.5795 700.897 27.125 700.897 26.4773V26.3409C700.897 24.6591 700.437 23.3523 699.516 22.4205C698.607 21.4886 697.226 21.0227 695.374 21.0227C693.454 21.0227 691.948 21.4432 690.857 22.2841C689.766 23.125 688.999 24.0227 688.556 24.9773L684.738 23.6136C685.419 22.0227 686.329 20.7841 687.465 19.8977C688.613 19 689.863 18.375 691.215 18.0227C692.579 17.6591 693.919 17.4773 695.238 17.4773C696.079 17.4773 697.044 17.5795 698.135 17.7841C699.238 17.9773 700.3 18.3807 701.323 18.9943C702.357 19.608 703.215 20.5341 703.897 21.7727C704.579 23.0114 704.919 24.6705 704.919 26.75V44H700.897V40.4545H700.692C700.419 41.0227 699.965 41.6307 699.329 42.2784C698.692 42.9261 697.846 43.4773 696.789 43.9318C695.732 44.3864 694.442 44.6136 692.919 44.6136ZM693.533 41C695.124 41 696.465 40.6875 697.556 40.0625C698.658 39.4375 699.488 38.6307 700.044 37.642C700.613 36.6534 700.897 35.6136 700.897 34.5227V30.8409C700.726 31.0455 700.351 31.233 699.772 31.4034C699.204 31.5625 698.544 31.7045 697.794 31.8295C697.056 31.9432 696.334 32.0455 695.63 32.1364C694.937 32.2159 694.374 32.2841 693.942 32.3409C692.897 32.4773 691.919 32.6989 691.01 33.0057C690.113 33.3011 689.385 33.75 688.829 34.3523C688.283 34.9432 688.01 35.75 688.01 36.7727C688.01 38.1705 688.527 39.2273 689.562 39.9432C690.607 40.6477 691.931 41 693.533 41Z" fill="#E4E7EC"/>
<path d="M5.16477 92V39.6364H14.6506V61.804H38.9148V39.6364H48.4261V92H38.9148V69.7557H14.6506V92H5.16477ZM68.1949 92.7926C65.7063 92.7926 63.4648 92.3494 61.4705 91.4631C59.4932 90.5597 57.9251 89.2301 56.766 87.4744C55.6239 85.7187 55.0529 83.554 55.0529 80.9801C55.0529 78.7642 55.462 76.9318 56.2802 75.483C57.0984 74.0341 58.2148 72.875 59.6296 72.0057C61.0444 71.1364 62.6381 70.4801 64.4109 70.0369C66.2006 69.5767 68.0501 69.2443 69.9592 69.0398C72.2603 68.8011 74.1268 68.5881 75.5586 68.4006C76.9904 68.196 78.0302 67.8892 78.6779 67.4801C79.3427 67.054 79.6751 66.3977 79.6751 65.5114V65.358C79.6751 63.4318 79.104 61.9403 77.962 60.8835C76.8199 59.8267 75.1751 59.2983 73.0273 59.2983C70.7603 59.2983 68.962 59.7926 67.6324 60.7812C66.3199 61.7699 65.4336 62.9375 64.9734 64.2841L56.3313 63.0568C57.0131 60.6705 58.1381 58.6761 59.7063 57.0739C61.2745 55.4545 63.1921 54.2443 65.4591 53.4432C67.7262 52.625 70.2319 52.2159 72.9762 52.2159C74.8682 52.2159 76.7518 52.4375 78.6268 52.8807C80.5018 53.3239 82.2148 54.0568 83.766 55.0795C85.3171 56.0852 86.5614 57.4574 87.4989 59.196C88.4535 60.9347 88.9307 63.108 88.9307 65.7159V92H80.033V86.6051H79.7262C79.1637 87.696 78.3711 88.7187 77.3484 89.6733C76.3427 90.6108 75.0728 91.3693 73.5387 91.9489C72.0216 92.5114 70.2404 92.7926 68.1949 92.7926ZM70.5984 85.9915C72.4563 85.9915 74.0671 85.625 75.4307 84.892C76.7944 84.142 77.8427 83.1534 78.5756 81.9261C79.3256 80.6989 79.7006 79.3608 79.7006 77.9119V73.2841C79.4109 73.5227 78.9165 73.7443 78.2177 73.9489C77.5359 74.1534 76.7688 74.3324 75.9165 74.4858C75.0643 74.6392 74.2205 74.7756 73.3853 74.8949C72.5501 75.0142 71.8256 75.1165 71.212 75.2017C69.8313 75.3892 68.5955 75.696 67.5046 76.1222C66.4137 76.5483 65.5529 77.1449 64.9222 77.9119C64.2915 78.6619 63.9762 79.6335 63.9762 80.8267C63.9762 82.5312 64.5984 83.8182 65.8427 84.6875C67.087 85.5568 68.6722 85.9915 70.5984 85.9915ZM96.7976 92V52.7273H105.644V59.4006H106.104C106.923 57.1506 108.278 55.3949 110.17 54.1335C112.062 52.8551 114.32 52.2159 116.945 52.2159C119.604 52.2159 121.846 52.8636 123.67 54.1591C125.511 55.4375 126.806 57.1847 127.556 59.4006H127.965C128.834 57.2187 130.3 55.4801 132.363 54.1847C134.442 52.8722 136.906 52.2159 139.752 52.2159C143.366 52.2159 146.315 53.358 148.599 55.642C150.883 57.9261 152.025 61.2585 152.025 65.6392V92H142.744V67.071C142.744 64.6335 142.096 62.8523 140.8 61.7273C139.505 60.5852 137.92 60.0142 136.045 60.0142C133.812 60.0142 132.065 60.7131 130.803 62.1108C129.559 63.4915 128.937 65.2898 128.937 67.5057V92H119.86V66.6875C119.86 64.6591 119.246 63.0398 118.019 61.8295C116.809 60.6193 115.224 60.0142 113.263 60.0142C111.934 60.0142 110.724 60.3551 109.633 61.0369C108.542 61.7017 107.673 62.6477 107.025 63.875C106.377 65.0852 106.053 66.5 106.053 68.1193V92H96.7976ZM160.384 92V39.6364H169.64V59.2216H170.023C170.5 58.267 171.174 57.2528 172.043 56.179C172.912 55.0881 174.088 54.1591 175.571 53.392C177.054 52.608 178.946 52.2159 181.247 52.2159C184.282 52.2159 187.017 52.9915 189.455 54.5426C191.909 56.0767 193.853 58.3523 195.284 61.3693C196.733 64.3693 197.458 68.0511 197.458 72.4148C197.458 76.7273 196.75 80.392 195.336 83.4091C193.921 86.4261 191.995 88.7273 189.557 90.3125C187.12 91.8977 184.358 92.6903 181.273 92.6903C179.023 92.6903 177.157 92.3153 175.674 91.5653C174.191 90.8153 172.997 89.9119 172.094 88.8551C171.208 87.7812 170.517 86.767 170.023 85.8125H169.486V92H160.384ZM169.461 72.3636C169.461 74.9034 169.818 77.1278 170.534 79.0369C171.267 80.946 172.316 82.4375 173.679 83.5114C175.06 84.5682 176.73 85.0966 178.691 85.0966C180.736 85.0966 182.449 84.5511 183.83 83.4602C185.211 82.3523 186.25 80.8437 186.949 78.9347C187.665 77.0085 188.023 74.8182 188.023 72.3636C188.023 69.9261 187.674 67.7614 186.975 65.8693C186.276 63.9773 185.236 62.4943 183.855 61.4205C182.475 60.3466 180.753 59.8097 178.691 59.8097C176.713 59.8097 175.034 60.3295 173.654 61.3693C172.273 62.4091 171.225 63.8665 170.509 65.7415C169.81 67.6165 169.461 69.8239 169.461 72.3636ZM228.918 75.483V52.7273H238.173V92H229.199V85.0199H228.79C227.903 87.2187 226.446 89.017 224.418 90.4148C222.406 91.8125 219.926 92.5114 216.977 92.5114C214.403 92.5114 212.128 91.9403 210.151 90.7983C208.19 89.6392 206.656 87.9602 205.548 85.7614C204.44 83.5455 203.886 80.8693 203.886 77.733V52.7273H213.142V76.3011C213.142 78.7898 213.824 80.767 215.187 82.233C216.551 83.6989 218.341 84.4318 220.557 84.4318C221.92 84.4318 223.241 84.0994 224.52 83.4347C225.798 82.7699 226.847 81.7812 227.665 80.4688C228.5 79.1392 228.918 77.4773 228.918 75.483ZM246.251 92V52.7273H255.225V59.2727H255.635C256.35 57.0057 257.578 55.2585 259.316 54.0312C261.072 52.7869 263.075 52.1648 265.325 52.1648C265.836 52.1648 266.407 52.1903 267.038 52.2415C267.686 52.2756 268.223 52.3352 268.649 52.4205V60.9347C268.257 60.7983 267.635 60.679 266.782 60.5767C265.947 60.4574 265.137 60.3977 264.353 60.3977C262.666 60.3977 261.149 60.7642 259.802 61.4972C258.473 62.2131 257.424 63.2102 256.657 64.4886C255.89 65.767 255.507 67.2415 255.507 68.9119V92H246.251ZM288.82 107.545C285.496 107.545 282.641 107.094 280.255 106.19C277.869 105.304 275.951 104.111 274.502 102.611C273.053 101.111 272.047 99.4489 271.485 97.625L279.82 95.6051C280.195 96.3722 280.741 97.1307 281.457 97.8807C282.172 98.6477 283.136 99.2784 284.346 99.7727C285.573 100.284 287.116 100.54 288.974 100.54C291.599 100.54 293.772 99.9006 295.494 98.6222C297.215 97.3608 298.076 95.2813 298.076 92.3835V84.9432H297.616C297.138 85.8977 296.44 86.8778 295.519 87.8835C294.616 88.8892 293.414 89.733 291.914 90.4148C290.431 91.0966 288.565 91.4375 286.315 91.4375C283.297 91.4375 280.562 90.7301 278.107 89.3153C275.67 87.8835 273.726 85.7528 272.278 82.9233C270.846 80.0767 270.13 76.5142 270.13 72.2358C270.13 67.9233 270.846 64.2841 272.278 61.3182C273.726 58.3352 275.678 56.0767 278.133 54.5426C280.587 52.9915 283.323 52.2159 286.34 52.2159C288.641 52.2159 290.533 52.608 292.016 53.392C293.516 54.1591 294.709 55.0881 295.596 56.179C296.482 57.2528 297.155 58.267 297.616 59.2216H298.127V52.7273H307.255V92.6392C307.255 95.9972 306.454 98.7756 304.851 100.974C303.249 103.173 301.059 104.818 298.28 105.909C295.502 107 292.349 107.545 288.82 107.545ZM288.897 84.1761C290.857 84.1761 292.528 83.6989 293.908 82.7443C295.289 81.7898 296.337 80.4176 297.053 78.6278C297.769 76.8381 298.127 74.6903 298.127 72.1847C298.127 69.7131 297.769 67.5483 297.053 65.6903C296.354 63.8324 295.315 62.392 293.934 61.3693C292.57 60.3295 290.891 59.8097 288.897 59.8097C286.834 59.8097 285.113 60.3466 283.732 61.4205C282.351 62.4943 281.312 63.9688 280.613 65.8438C279.914 67.7017 279.565 69.8153 279.565 72.1847C279.565 74.5881 279.914 76.6932 280.613 78.5C281.329 80.2898 282.377 81.6875 283.758 82.6932C285.155 83.6818 286.869 84.1761 288.897 84.1761ZM332.687 92.767C328.75 92.767 325.349 91.9489 322.485 90.3125C319.639 88.6591 317.448 86.3239 315.914 83.3068C314.38 80.2727 313.613 76.7017 313.613 72.5938C313.613 68.554 314.38 65.0085 315.914 61.9574C317.465 58.8892 319.63 56.5028 322.409 54.7983C325.187 53.0767 328.451 52.2159 332.201 52.2159C334.622 52.2159 336.906 52.608 339.054 53.392C341.218 54.1591 343.127 55.3523 344.781 56.9716C346.451 58.5909 347.764 60.6534 348.718 63.1591C349.673 65.6477 350.15 68.6136 350.15 72.0568V74.8949H317.96V68.6562H341.278C341.261 66.8835 340.877 65.3068 340.127 63.9261C339.377 62.5284 338.329 61.429 336.983 60.6278C335.653 59.8267 334.102 59.4261 332.329 59.4261C330.437 59.4261 328.775 59.8864 327.343 60.8068C325.911 61.7102 324.795 62.9034 323.994 64.3864C323.21 65.8523 322.809 67.4631 322.792 69.2188V74.6648C322.792 76.9489 323.21 78.9091 324.045 80.5455C324.88 82.1648 326.048 83.4091 327.548 84.2784C329.048 85.1307 330.804 85.5568 332.815 85.5568C334.161 85.5568 335.38 85.3693 336.471 84.9943C337.562 84.6023 338.508 84.0312 339.309 83.2812C340.11 82.5312 340.715 81.6023 341.125 80.4943L349.767 81.4659C349.221 83.75 348.181 85.7443 346.647 87.4489C345.13 89.1364 343.187 90.4489 340.818 91.3864C338.448 92.3068 335.738 92.767 332.687 92.767ZM376.432 52.7273V59.8864H353.217V52.7273H376.432ZM359.02 92V49.0199C359.02 46.3778 359.566 44.179 360.657 42.4233C361.765 40.6676 363.248 39.3551 365.106 38.4858C366.964 37.6165 369.026 37.1818 371.293 37.1818C372.895 37.1818 374.319 37.3097 375.563 37.5653C376.807 37.821 377.728 38.0511 378.324 38.2557L376.484 45.4148C376.092 45.2955 375.597 45.1761 375.001 45.0568C374.404 44.9205 373.739 44.8523 373.006 44.8523C371.285 44.8523 370.066 45.2699 369.35 46.1051C368.651 46.9233 368.302 48.0994 368.302 49.6335V92H359.02ZM397.895 92.767C394.06 92.767 390.736 91.9233 387.924 90.2358C385.111 88.5483 382.929 86.1875 381.378 83.1534C379.844 80.1193 379.077 76.5739 379.077 72.517C379.077 68.4602 379.844 64.9062 381.378 61.8551C382.929 58.804 385.111 56.4347 387.924 54.7472C390.736 53.0597 394.06 52.2159 397.895 52.2159C401.73 52.2159 405.054 53.0597 407.867 54.7472C410.679 56.4347 412.853 58.804 414.387 61.8551C415.938 64.9062 416.713 68.4602 416.713 72.517C416.713 76.5739 415.938 80.1193 414.387 83.1534C412.853 86.1875 410.679 88.5483 407.867 90.2358C405.054 91.9233 401.73 92.767 397.895 92.767ZM397.946 85.3523C400.026 85.3523 401.764 84.7812 403.162 83.6392C404.56 82.4801 405.6 80.929 406.281 78.9858C406.98 77.0426 407.33 74.8778 407.33 72.4915C407.33 70.0881 406.98 67.9148 406.281 65.9716C405.6 64.0114 404.56 62.4517 403.162 61.2926C401.764 60.1335 400.026 59.554 397.946 59.554C395.816 59.554 394.043 60.1335 392.628 61.2926C391.23 62.4517 390.182 64.0114 389.483 65.9716C388.801 67.9148 388.46 70.0881 388.46 72.4915C388.46 74.8778 388.801 77.0426 389.483 78.9858C390.182 80.929 391.23 82.4801 392.628 83.6392C394.043 84.7812 395.816 85.3523 397.946 85.3523ZM432.385 68.9886V92H423.129V52.7273H431.976V59.4006H432.436C433.339 57.2017 434.78 55.4545 436.757 54.1591C438.751 52.8636 441.214 52.2159 444.146 52.2159C446.856 52.2159 449.217 52.7955 451.229 53.9545C453.257 55.1136 454.825 56.7926 455.933 58.9915C457.058 61.1903 457.612 63.858 457.595 66.9943V92H448.339V68.4261C448.339 65.8011 447.658 63.7472 446.294 62.2642C444.947 60.7812 443.081 60.0398 440.694 60.0398C439.075 60.0398 437.635 60.3977 436.373 61.1136C435.129 61.8125 434.149 62.8267 433.433 64.1562C432.734 65.4858 432.385 67.0966 432.385 68.9886ZM496.604 63.108L488.166 64.0284C487.928 63.1761 487.51 62.375 486.914 61.625C486.334 60.875 485.55 60.2699 484.561 59.8097C483.573 59.3494 482.362 59.1193 480.931 59.1193C479.004 59.1193 477.385 59.5369 476.073 60.3722C474.777 61.2074 474.138 62.2898 474.155 63.6193C474.138 64.7614 474.556 65.6903 475.408 66.4062C476.277 67.1222 477.709 67.7102 479.703 68.1705L486.402 69.6023C490.118 70.4034 492.879 71.6733 494.686 73.4119C496.51 75.1506 497.431 77.4261 497.448 80.2386C497.431 82.7102 496.706 84.892 495.274 86.7841C493.86 88.6591 491.891 90.125 489.368 91.1818C486.845 92.2386 483.948 92.767 480.675 92.767C475.868 92.767 471.999 91.7614 469.067 89.75C466.135 87.7216 464.388 84.9006 463.825 81.2869L472.851 80.4176C473.26 82.1903 474.129 83.5284 475.459 84.4318C476.789 85.3352 478.519 85.7869 480.649 85.7869C482.848 85.7869 484.612 85.3352 485.942 84.4318C487.289 83.5284 487.962 82.4119 487.962 81.0824C487.962 79.9574 487.527 79.0284 486.658 78.2955C485.806 77.5625 484.476 77 482.669 76.608L475.97 75.2017C472.203 74.4176 469.416 73.0966 467.61 71.2386C465.803 69.3636 464.908 66.9943 464.925 64.1307C464.908 61.7102 465.564 59.6136 466.894 57.8409C468.24 56.0511 470.107 54.6705 472.493 53.6989C474.897 52.7102 477.666 52.2159 480.803 52.2159C485.405 52.2159 489.027 53.196 491.669 55.1562C494.328 57.1165 495.973 59.767 496.604 63.108ZM523.251 52.7273V59.8864H500.674V52.7273H523.251ZM506.248 43.3182H515.503V80.1875C515.503 81.4318 515.691 82.3864 516.066 83.0511C516.458 83.6989 516.969 84.142 517.6 84.3807C518.231 84.6193 518.93 84.7386 519.697 84.7386C520.276 84.7386 520.805 84.696 521.282 84.6108C521.776 84.5256 522.151 84.4489 522.407 84.3807L523.966 91.6165C523.472 91.7869 522.765 91.9744 521.844 92.179C520.941 92.3835 519.833 92.5028 518.52 92.5369C516.202 92.6051 514.114 92.2557 512.256 91.4886C510.398 90.7045 508.924 89.4943 507.833 87.858C506.759 86.2216 506.231 84.1761 506.248 81.7216V43.3182ZM529.551 92V52.7273H538.807V92H529.551ZM534.205 47.1534C532.739 47.1534 531.477 46.6676 530.421 45.696C529.364 44.7074 528.835 43.5227 528.835 42.142C528.835 40.7443 529.364 39.5597 530.421 38.5881C531.477 37.5994 532.739 37.1051 534.205 37.1051C535.688 37.1051 536.949 37.5994 537.989 38.5881C539.046 39.5597 539.574 40.7443 539.574 42.142C539.574 43.5227 539.046 44.7074 537.989 45.696C536.949 46.6676 535.688 47.1534 534.205 47.1534ZM581.964 52.7273L567.979 92H557.751L543.765 52.7273H553.635L562.66 81.9006H563.069L572.121 52.7273H581.964Z" fill="white"/>
<rect x="600" y="53" width="142" height="13" rx="6.5" fill="white"/>
</svg>
